<?xml version="1.0" standalone="no"?>
<!DOCTYPE svg PUBLIC "-//W3C//DTD SVG 20010904//EN"
 "http://www.w3.org/TR/2001/REC-SVG-20010904/DTD/svg10.dtd">
<svg version="1.0" xmlns="http://www.w3.org/2000/svg"
 width="875.000000pt" height="387.000000pt" viewBox="0 0 875.000000 387.000000"
 preserveAspectRatio="xMidYMid meet">

<g transform="translate(0.000000,387.000000) scale(0.100000,-0.100000)"
fill="#000000" stroke="none">
<path d="M5935 2351 c-11 -5 -29 -19 -40 -31 -19 -21 -20 -36 -20 -387 l0
-365 33 -29 32 -29 346 0 c374 0 388 2 412 55 9 18 12 126 12 376 l0 351 -34
34 -34 34 -344 -1 c-188 0 -352 -4 -363 -8z m235 -426 l0 -185 -30 0 -30 0 0
155 c0 85 -3 155 -8 155 -4 0 -24 -11 -44 -25 -20 -14 -39 -25 -41 -25 -3 0
-2 14 2 30 7 37 71 79 119 80 l32 0 0 -185z m320 60 l0 -125 25 0 c20 0 25 -5
25 -25 0 -20 -5 -25 -25 -25 -22 0 -25 -4 -25 -35 0 -31 -3 -35 -25 -35 -22 0
-25 4 -25 35 l0 35 -90 0 c-89 0 -90 0 -90 25 0 13 20 55 43 92 24 37 60 94
80 126 33 52 40 57 72 57 l35 0 0 -125z"/>
<path d="M6378 1955 l-58 -90 56 -3 c31 -2 58 -1 61 1 2 3 3 44 1 93 l-3 89
-57 -90z"/>
<path d="M2050 1856 c0 -322 1 -344 18 -341 9 2 34 4 54 4 l38 1 2 263 3 262
125 -154 c69 -85 166 -204 215 -265 l91 -111 362 0 362 0 0 52 0 53 -232 2
-233 3 -3 88 -3 87 191 0 190 0 0 55 0 55 -190 0 -191 0 3 88 3 87 233 3 232
2 0 55 0 55 -290 0 -290 0 0 -335 c0 -184 -3 -335 -7 -334 -5 0 -44 46 -89
102 -45 56 -165 207 -269 335 l-187 232 -69 0 -69 0 0 -344z"/>
<path d="M3470 2194 c0 -7 530 -667 542 -675 13 -8 148 -12 148 -4 0 4 -59 79
-130 168 -72 89 -131 166 -131 170 -1 5 58 83 130 173 72 90 131 166 131 169
0 12 -142 2 -153 -10 -11 -11 -126 -152 -174 -213 l-18 -24 -82 104 c-124 157
-113 148 -193 148 -39 0 -70 -2 -70 -6z"/>
<path d="M4297 2193 c-4 -3 -7 -28 -7 -55 l0 -48 120 0 120 0 0 -289 0 -288
58 1 57 1 2 285 2 285 116 3 115 3 0 54 0 55 -288 0 c-159 0 -292 -3 -295 -7z"/>
<path d="M5113 1803 c-9 -3 -13 -37 -13 -118 0 -102 -2 -114 -19 -120 -24 -7
-51 4 -51 21 0 14 -41 20 -53 8 -8 -8 11 -45 32 -61 28 -21 87 -15 118 11 28
24 28 25 28 142 0 122 -4 133 -42 117z"/>
<path d="M5264 1800 c-28 -11 -54 -48 -54 -75 0 -35 22 -55 90 -78 51 -17 66
-27 68 -44 7 -45 -85 -55 -109 -12 -14 27 -55 22 -51 -6 7 -43 38 -60 108 -60
57 0 68 3 85 24 24 30 25 83 1 104 -10 10 -41 24 -69 32 -56 17 -76 34 -67 58
12 31 86 33 98 2 6 -17 56 -21 56 -4 0 6 -13 24 -29 40 -31 30 -81 38 -127 19z"/>
<path d="M3582 1661 c-62 -77 -112 -142 -112 -145 0 -9 133 -7 145 2 9 6 107
126 148 179 6 9 -1 27 -24 58 -19 24 -37 45 -40 45 -3 0 -56 -63 -117 -139z"/>
<path d="M4884 1565 c-8 -21 2 -45 19 -45 8 0 20 7 27 15 10 12 10 18 0 30 -7
8 -19 15 -27 15 -7 0 -16 -7 -19 -15z"/>
</g>
</svg>
